<svg xmlns="http://www.w3.org/2000/svg" aria-hidden="true" style="position:absolute;width:0;height:0;overflow:hidden">
  <defs>
    <symbol id="apple" viewBox="0 0 32 32">
      <path d="M32 16c0 8.837-7.163 16-16 16S0 24.837 0 16 7.163 0 16 0s16 7.163 16 16z" style="fill:var(--color1, #000)"/>
      <path fill="#fff" d="M19.884 10.667c-1.68 0-2.39.807-3.561.807-1.2 0-2.115-.802-3.571-.802-1.425 0-2.945.876-3.91 2.369-1.355 2.105-1.125 6.069 1.07 9.446.785 1.209 1.834 2.565 3.209 2.579h.025c1.195 0 1.55-.788 3.195-.797h.025c1.62 0 1.945.793 3.136.793h.025c1.375-.015 2.48-1.517 3.265-2.721.565-.866.775-1.301 1.209-2.281-3.175-1.214-3.685-5.746-.545-7.483-.959-1.208-2.305-1.908-3.575-1.908l.004-.002zM19.699 6.4c-.967.065-2.096.67-2.757 1.459-.6.716-1.093 1.778-.9 2.807h.077c1.03 0 2.085-.609 2.7-1.39.593-.743 1.043-1.796.879-2.877z" style="fill:var(--color2, #fff)"/>
    </symbol>
    <symbol id="android" viewBox="0 0 32 32">
      <path d="M32 16c0 8.837-7.163 16-16 16S0 24.837 0 16 7.163 0 16 0s16 7.163 16 16z" style="fill:var(--color1, #000)"/>
      <path fill="#fff" d="M10.623 20.922c0 .501.425.911.947.911h1.082v2.58c0 .654.545 1.187 1.214 1.187a1.2 1.2 0 0 0 1.214-1.187v-2.582h1.889v2.58c0 .654.545 1.187 1.214 1.187a1.2 1.2 0 0 0 1.214-1.187v-2.58h1.082c.522 0 .947-.409.947-.911v-8.468H10.623v8.47zm7.938-12.858.998-1.393c.058-.081.044-.191-.033-.244-.078-.051-.189-.026-.247.056l-1.036 1.448c-.682-.259-1.443-.403-2.241-.403s-1.558.144-2.241.403l-1.036-1.446c-.058-.081-.169-.109-.247-.056-.078.051-.091.159-.033.244l.998 1.393c-1.587.711-2.698 2.059-2.841 3.634h10.803c-.147-1.577-1.26-2.925-2.845-3.636zm-4.839 2.196c-.118 0-.234-.034-.332-.097s-.175-.153-.22-.259a.56.56 0 0 1 .13-.628.616.616 0 0 1 .919.087.567.567 0 0 1 .101.32c0 .153-.064.299-.176.407s-.264.169-.422.169zm4.632 0c-.118 0-.234-.034-.332-.097s-.175-.153-.22-.259a.56.56 0 0 1 .13-.628.62.62 0 0 1 .652-.125c.109.044.203.117.268.212s.101.206.101.32c0 .153-.064.299-.176.407s-.264.169-.422.169zm4.966 2.158a1.2 1.2 0 0 0-1.214 1.187v4.637c0 .654.545 1.187 1.214 1.187a1.2 1.2 0 0 0 1.214-1.187v-4.639c.002-.656-.54-1.185-1.214-1.185zm-14.64 0a1.2 1.2 0 0 0-1.214 1.187v4.637c0 .654.545 1.187 1.214 1.187a1.2 1.2 0 0 0 1.214-1.187v-4.639c0-.656-.545-1.185-1.214-1.185z" style="fill:var(--color2, #fff)"/>
    </symbol>
    <symbol id="facebook" viewBox="0 0 32 32">
      <path  d="M22.4 2.667h-4a6.67 6.67 0 0 0-6.667 6.667v4h-4v5.333h4v10.667h5.333V18.667h4l1.333-5.333h-5.333v-4A1.335 1.335 0 0 1 18.4 8h4V2.667z" />
    </symbol>
    <symbol id="twitter" viewBox="0 0 32 32">
      <path  d="M30.134 5.599a13.49 13.49 0 0 1-3.882 1.892 5.548 5.548 0 0 0-6.155-1.54 5.545 5.545 0 0 0-3.564 5.249v1.236A13.184 13.184 0 0 1 5.406 6.835S.461 17.962 11.588 22.908a14.397 14.397 0 0 1-8.655 2.473c11.127 6.182 24.727 0 24.727-14.218a5.522 5.522 0 0 0-.099-1.026A9.55 9.55 0 0 0 30.133 5.6z" />
    </symbol>
    <symbol id="linkedin" viewBox="0 0 32 32">
      <path d="M8.268 28H2.463V9.306h5.805V28zM5.362 6.756C3.506 6.756 2 5.218 2 3.362A3.366 3.366 0 0 1 5.362 0a3.366 3.366 0 0 1 3.362 3.362c0 1.856-1.506 3.394-3.362 3.394zM29.994 28h-5.792v-9.1c0-2.169-.044-4.95-3.018-4.95-3.018 0-3.481 2.356-3.481 4.794V28h-5.799V9.306h5.567v2.55h.081c.775-1.469 2.668-3.019 5.492-3.019 5.875 0 6.955 3.869 6.955 8.894V28h-.005z" />
    </symbol>
    <symbol id="appleinc" viewBox="0 0 32 32">
      <path d="M24.734 17.003c-.04-4.053 3.305-5.996 3.454-6.093-1.88-2.751-4.808-3.127-5.851-3.171-2.492-.252-4.862 1.467-6.127 1.467-1.261 0-3.213-1.43-5.28-1.392-2.716.04-5.221 1.579-6.619 4.012-2.822 4.897-.723 12.151 2.028 16.123 1.344 1.944 2.947 4.127 5.051 4.049 2.026-.081 2.793-1.311 5.242-1.311s3.138 1.311 5.283 1.271c2.18-.041 3.562-1.981 4.897-3.931 1.543-2.255 2.179-4.439 2.216-4.551-.048-.022-4.252-1.632-4.294-6.473zM20.705 5.11C21.822 3.755 22.576 1.875 22.37 0c-1.609.066-3.559 1.072-4.713 2.423-1.036 1.199-1.942 3.113-1.699 4.951 1.796.14 3.629-.913 4.747-2.264z"/>
    </symbol>
    <symbol id="android1" viewBox="0 0 32 32">
      <path d="M28 12c-1.1 0-2 .9-2 2v8c0 1.1.9 2 2 2s2-.9 2-2v-8c0-1.1-.9-2-2-2zM4 12c-1.1 0-2 .9-2 2v8c0 1.1.9 2 2 2s2-.9 2-2v-8c0-1.1-.9-2-2-2zm3 11a3 3 0 0 0 3 3v4c0 1.1.9 2 2 2s2-.9 2-2v-4h4v4c0 1.1.9 2 2 2s2-.9 2-2v-4a3 3 0 0 0 3-3V12H7v11zM24.944 10a8.994 8.994 0 0 0-4.051-6.551l1.001-2.001a1 1 0 0 0-1.789-.895l-1.004 2.009-.261-.104C17.947 2.161 16.992 2 16 2s-1.947.161-2.84.458l-.261.104L11.895.553a1 1 0 0 0-1.789.895l1.001 2.001A8.996 8.996 0 0 0 7.056 10v1H25v-1h-.056zM13 8a1 1 0 0 1-.002-2h.005a1 1 0 0 1-.002 2zm6 0a1 1 0 0 1-.002-2h.005a1 1 0 0 1-.002 2z"/>
    </symbol>
    <!-- modal-icons -->
    <symbol id="close-btn" viewBox="0 0 32 32">
      <path  d="M17.253 16l7.369-7.369c0.146-0.17 0.222-0.389 0.213-0.613s-0.102-0.436-0.26-0.594-0.37-0.251-0.594-0.26c-0.224-0.009-0.442 0.067-0.613 0.213l-7.369 7.369-7.369-7.378c-0.167-0.167-0.394-0.261-0.631-0.261s-0.464 0.094-0.631 0.261c-0.167 0.167-0.261 0.394-0.261 0.631s0.094 0.464 0.261 0.631l7.378 7.369-7.378 7.369c-0.093 0.080-0.169 0.178-0.222 0.288s-0.083 0.23-0.088 0.353c-0.005 0.122 0.016 0.244 0.061 0.358s0.112 0.218 0.199 0.304c0.087 0.087 0.19 0.154 0.304 0.199s0.236 0.065 0.359 0.061c0.122-0.005 0.243-0.035 0.353-0.088s0.208-0.129 0.288-0.222l7.378-7.369 7.369 7.369c0.17 0.146 0.389 0.222 0.613 0.213s0.436-0.101 0.594-0.26 0.251-0.37 0.26-0.594c0.009-0.224-0.068-0.442-0.213-0.613l-7.369-7.369z"></path>
    </symbol>
    <symbol id="file-download" viewBox="0 0 24 32">
      <path fill="#fff" style="fill: var(--color1, #fff)" d="M14.088 8.425v-8.425h-12.579c-0.836 0-1.509 0.663-1.509 1.487v28.743c0 0.824 0.673 1.487 1.509 1.487h21.132c0.836 0 1.509-0.663 1.509-1.487v-20.318h-8.553c-0.83 0-1.509-0.669-1.509-1.487zM18.896 21.518l-6.064 5.928c-0.418 0.409-1.094 0.409-1.512 0l-6.064-5.928c-0.638-0.624-0.191-1.695 0.708-1.695h4.099v-4.956c0-0.548 0.45-0.991 1.006-0.991h2.013c0.556 0 1.006 0.444 1.006 0.991v4.956h4.099c0.898 0 1.346 1.071 0.709 1.695zM23.711 6.504l-6.157-6.071c-0.283-0.279-0.667-0.434-1.069-0.434h-0.384v7.929h8.050v-0.378c0-0.39-0.157-0.768-0.44-1.047z"></path>
    </symbol>    
    <svg xmlns="http://www.w3.org/2000/svg" aria-hidden="true" style="position:absolute;width:0;height:0;overflow:hidden">
  <defs>
    <symbol id="file" viewBox="0 0 32 32">
      <path fill="#fff" d="M26.706 9.022c.187.188.294.441.294.706V29a1 1 0 0 1-1 1H6a1 1 0 0 1-1-1V3a1 1 0 0 1 1-1h13.272c.266 0 .522.106.709.294l6.725 6.728zm-2.012 1.166-5.881-5.881v5.881h5.881zM10 15.063a.25.25 0 0 0-.25.25v1.5a.25.25 0 0 0 .25.25h12a.25.25 0 0 0 .25-.25v-1.5a.25.25 0 0 0-.25-.25H10zm0 4.249a.25.25 0 0 0-.25.25v1.5a.25.25 0 0 0 .25.25h5.75a.25.25 0 0 0 .25-.25v-1.5a.25.25 0 0 0-.25-.25H10z" style="fill:var(--color1, #fff)"/>
    </symbol>
    <symbol id="zip" viewBox="0 0 32 32">
      <path fill="#fff" d="M11 18.876V17h2v1.876c0 .164.02.327.06.486l.8 3.196-1.86 1.24-1.86-1.24.8-3.196c.04-.159.06-.322.06-.486z" style="fill:var(--color1, #fff)"/>
      <path fill="#fff" d="M18.586 0H8a4.003 4.003 0 0 0-4 4v24a4.003 4.003 0 0 0 4 4h16a4.003 4.003 0 0 0 4-4V9.414A2 2 0 0 0 27.414 8L20 .586A2 2 0 0 0 18.586 0zM19 7V3l6 6h-4a2 2 0 0 1-2-2zm-8-1V4H9V2h3v2h2v2h-2v2h2v2h-2v2h2v2h-3v-2H9v-2h2V8H9V6h2zm0 9h2a2 2 0 0 1 2 2v1.876l.8 3.198a1.998 1.998 0 0 1-.832 2.148l-1.86 1.24a1.997 1.997 0 0 1-2.218 0l-1.86-1.24a2.005 2.005 0 0 1-.83-2.149l.8-3.198v-1.876a2 2 0 0 1 2-2z" style="fill:var(--color1, #fff)"/>
    </symbol>
    <symbol id="avatar" viewBox="0 0 32 32">
      <path fill="#fff" d="M26.749 24.93a13.99 13.99 0 1 0-24.748-8.932 13.902 13.902 0 0 0 3.251 8.93l-.02.017c.07.084.15.156.222.239.09.103.187.2.28.3.28.304.568.596.87.87.092.084.187.162.28.242.32.276.649.538.99.782.044.03.084.069.128.1v-.012a13.902 13.902 0 0 0 16 0v.012c.044-.031.083-.07.128-.1.34-.245.67-.506.99-.782.093-.08.188-.159.28-.242.302-.275.59-.566.87-.87.093-.1.189-.197.28-.3.071-.083.152-.155.222-.24l-.022-.016zM16 8a4.503 4.503 0 0 1 4.157 2.778 4.502 4.502 0 0 1-3.28 6.136 4.502 4.502 0 0 1-5.378-4.413 4.5 4.5 0 0 1 4.5-4.5zM8.007 24.93A4.995 4.995 0 0 1 13 20h6a4.998 4.998 0 0 1 4.993 4.93 11.942 11.942 0 0 1-15.986 0z" style="fill:var(--color1, #fff)"/>
    </symbol>
    <symbol id="calendar" viewBox="0 0 32 32">
      <path fill="#fff" d="M28 26.667V8a2.67 2.67 0 0 0-2.667-2.667h-2.667V2.666h-2.667v2.667h-8V2.666H9.332v2.667H6.665A2.67 2.67 0 0 0 3.998 8v18.667a2.67 2.67 0 0 0 2.667 2.667h18.667a2.67 2.67 0 0 0 2.667-2.667zM12 24H9.333v-2.667H12V24zm0-5.333H9.333V16H12v2.667zM17.333 24h-2.667v-2.667h2.667V24zm0-5.333h-2.667V16h2.667v2.667zM22.667 24H20v-2.667h2.667V24zm0-5.333H20V16h2.667v2.667zM25.333 12H6.666V9.333h18.667V12z" style="fill:var(--color1, #fff)"/>
    </symbol>
    <symbol id="compucter" viewBox="0 0 32 32">
      <path fill="#fff" d="M28.005 2.672h-24a2.674 2.674 0 0 0-2.666 2.666v16a2.674 2.674 0 0 0 2.666 2.666h9.333v2.667h-2.667v2.667h10.667v-2.667h-2.667v-2.667h9.333a2.674 2.674 0 0 0 2.666-2.666v-16a2.674 2.674 0 0 0-2.666-2.666zM14.341 18.227h-.001l-6.333-6.333 1.887-1.884 4.448 4.448 7.78-7.781 1.887 1.887-9.667 9.664z" style="fill:var(--color1, #fff)"/>
    </symbol>
    <symbol id="language" viewBox="0 0 32 32">
      <path fill="#fff" d="M16 29.333c-1.822 0-3.544-.35-5.167-1.051s-3.039-1.655-4.249-2.867c-1.212-1.211-2.167-2.627-2.867-4.249s-1.051-3.344-1.051-5.167c0-1.844.35-3.572 1.051-5.183s1.655-3.023 2.867-4.233c1.211-1.212 2.627-2.168 4.249-2.868S14.177 2.666 16 2.666c1.844 0 3.572.35 5.183 1.049a13.536 13.536 0 0 1 7.1 7.101c.7 1.611 1.051 3.338 1.051 5.183 0 1.822-.35 3.544-1.051 5.167s-1.655 3.039-2.867 4.249c-1.211 1.212-2.622 2.167-4.233 2.867S17.845 29.333 16 29.333zm0-2.733c.578-.8 1.078-1.633 1.5-2.5s.767-1.789 1.033-2.767h-5.067c.267.978.611 1.9 1.033 2.767s.922 1.7 1.5 2.5zm-3.466-.533c-.4-.733-.75-1.495-1.049-2.284s-.551-1.605-.751-2.449H6.801c.644 1.111 1.45 2.078 2.416 2.9s2.073 1.433 3.317 1.833zm6.933 0c1.244-.4 2.35-1.011 3.316-1.833s1.773-1.789 2.417-2.9h-3.933c-.2.844-.45 1.661-.749 2.449s-.651 1.551-1.051 2.284zm-13.8-7.4H10.2a17.269 17.269 0 0 1-.2-2.666c0-.467.016-.916.049-1.349s.084-.873.151-1.317H5.667a10.52 10.52 0 0 0-.334 2.666 10.693 10.693 0 0 0 .334 2.666zm7.2 0h6.267c.067-.444.117-.884.151-1.317.033-.433.049-.883.049-1.349s-.016-.916-.049-1.349a18.515 18.515 0 0 0-.151-1.317h-6.267a17.996 17.996 0 0 0-.149 4.015c.034.433.083.873.149 1.317zm8.933 0h4.533a10.52 10.52 0 0 0 .334-2.666 10.693 10.693 0 0 0-.334-2.666H21.8a17.996 17.996 0 0 1 .149 4.015c-.033.434-.083.873-.149 1.317zm-.533-8H25.2c-.644-1.111-1.45-2.078-2.417-2.9s-2.072-1.433-3.316-1.833c.4.733.75 1.494 1.051 2.283s.549 1.606.749 2.451zm-7.8 0h5.067c-.267-.978-.611-1.9-1.033-2.767s-.922-1.7-1.5-2.5c-.578.8-1.078 1.633-1.5 2.5s-.767 1.789-1.033 2.767zm-6.667 0h3.933c.2-.844.45-1.661.751-2.451s.649-1.549 1.049-2.283c-1.244.4-2.35 1.011-3.317 1.833s-1.772 1.789-2.416 2.9z" style="fill:var(--color1, #fff)"/>
    </symbol>
    <symbol id="weight" viewBox="0 0 32 32">
      <path fill="#fff" d="M26.806 25.481a2.666 2.666 0 0 1-2.663 2.518H7.855a2.67 2.67 0 0 1-2.663-2.518L4.155 6.814c-.02-.362.034-.724.158-1.065s.317-.652.567-.915a2.679 2.679 0 0 1 1.936-.835h18.363a2.678 2.678 0 0 1 1.938.834 2.663 2.663 0 0 1 .726 1.981l-1.037 18.667zm-3.977-13.628c.547-.36.684-1.074.235-1.539a9.624 9.624 0 0 0-2.63-1.921 10.165 10.165 0 0 0-4.372-1.058 10.208 10.208 0 0 0-4.407.921 9.698 9.698 0 0 0-2.697 1.837c-.465.451-.353 1.168.181 1.545l2.875 2.031c.533.377 1.285.255 1.838-.097a3.868 3.868 0 0 1 2.008-.59l2.262-2.601a.671.671 0 0 1 .715-.195.678.678 0 0 1 .385.335.67.67 0 0 1-.094.735l-1.755 2.017c.238.098.465.221.677.365.54.369 1.287.513 1.833.153l2.945-1.939z" style="fill:var(--color1, #fff)"/>
    </symbol>
    <symbol id="download" viewBox="0 0 32 32">
      <path fill="#fff" d="M13.5 0h5c.831 0 1.5.669 1.5 1.5V12h5.481c1.112 0 1.669 1.344.881 2.131l-9.506 9.513a1.21 1.21 0 0 1-1.706 0l-9.519-9.513C4.844 13.344 5.4 12 6.512 12H12V1.5c0-.831.669-1.5 1.5-1.5zM32 23.5v7c0 .831-.669 1.5-1.5 1.5h-29C.669 32 0 31.331 0 30.5v-7c0-.831.669-1.5 1.5-1.5h9.169l3.062 3.063a3.204 3.204 0 0 0 4.538 0L21.331 22H30.5c.831 0 1.5.669 1.5 1.5zM24.25 29c0-.688-.563-1.25-1.25-1.25s-1.25.563-1.25 1.25c0 .688.563 1.25 1.25 1.25s1.25-.563 1.25-1.25zm4 0c0-.688-.563-1.25-1.25-1.25s-1.25.563-1.25 1.25c0 .688.563 1.25 1.25 1.25s1.25-.563 1.25-1.25z" style="fill:var(--color1, #fff)"/>
    </symbol>
    <!-- arrow -->
    <symbol id="hero-arrow" viewBox="0 0 32 32">
      <path fill="#fff" style="fill: var(--color1, #fff)" d="M9.6 24l8-8-8-8 1.6-3.2 11.2 11.2-11.2 11.2-1.6-3.2z"></path>
    </symbol>
    <symbol id="modal-arrow" viewBox="0 0 32 32">
      <path fill="#fff" style="fill: var(--color1, #fff)" d="M7.381 29.181c0.216 0.112 0.458 0.164 0.701 0.149s0.477-0.096 0.677-0.234l17.333-12c0.177-0.123 0.322-0.287 0.422-0.477s0.152-0.403 0.152-0.619-0.052-0.428-0.152-0.619c-0.1-0.191-0.245-0.355-0.422-0.477l-17.333-12c-0.2-0.138-0.434-0.219-0.677-0.234s-0.485 0.037-0.7 0.15c-0.215 0.113-0.396 0.283-0.522 0.491s-0.193 0.447-0.193 0.69v24c-0 0.243 0.067 0.482 0.193 0.69s0.307 0.378 0.522 0.491z"></path>
    </symbol>
  </defs>
</svg>
  </defs>
</svg>